<svg width="43" height="42" viewBox="0 0 43 42" fill="none" xmlns="http://www.w3.org/2000/svg">
<path d="M12.8825 0.0742188H30.4601C37.1564 0.0742188 42.597 5.51491 42.597 12.2111V29.7887C42.597 33.0077 41.3183 36.0947 39.0422 38.3708C36.7661 40.647 33.679 41.9257 30.4601 41.9257H12.8825C6.18629 41.9257 0.745605 36.485 0.745605 29.7887V12.2111C0.745605 8.99223 2.02431 5.90515 4.30043 3.62904C6.57654 1.35293 9.66361 0.0742188 12.8825 0.0742188ZM12.464 4.25936C10.4661 4.25936 8.54995 5.05304 7.13719 6.4658C5.72443 7.87856 4.93075 9.79468 4.93075 11.7926V30.2073C4.93075 34.3715 8.29979 37.7405 12.464 37.7405H30.8786C32.8766 37.7405 34.7927 36.9468 36.2055 35.5341C37.6182 34.1213 38.4119 32.2052 38.4119 30.2073V11.7926C38.4119 7.6284 35.0429 4.25936 30.8786 4.25936H12.464ZM32.6573 7.39822C33.3511 7.39822 34.0164 7.6738 34.5069 8.16435C34.9975 8.65489 35.273 9.3202 35.273 10.0139C35.273 10.7077 34.9975 11.373 34.5069 11.8635C34.0164 12.3541 33.3511 12.6297 32.6573 12.6297C31.9636 12.6297 31.2983 12.3541 30.8077 11.8635C30.3172 11.373 30.0416 10.7077 30.0416 10.0139C30.0416 9.3202 30.3172 8.65489 30.8077 8.16435C31.2983 7.6738 31.9636 7.39822 32.6573 7.39822ZM21.6713 10.5371C24.4462 10.5371 27.1075 11.6394 29.0697 13.6016C31.0319 15.5637 32.1342 18.225 32.1342 20.9999C32.1342 23.7749 31.0319 26.4361 29.0697 28.3983C27.1075 30.3605 24.4462 31.4628 21.6713 31.4628C18.8964 31.4628 16.2351 30.3605 14.273 28.3983C12.3108 26.4361 11.2085 23.7749 11.2085 20.9999C11.2085 18.225 12.3108 15.5637 14.273 13.6016C16.2351 11.6394 18.8964 10.5371 21.6713 10.5371ZM21.6713 14.7222C20.0064 14.7222 18.4096 15.3836 17.2323 16.5609C16.055 17.7382 15.3936 19.335 15.3936 20.9999C15.3936 22.6649 16.055 24.2617 17.2323 25.439C18.4096 26.6163 20.0064 27.2777 21.6713 27.2777C23.3363 27.2777 24.933 26.6163 26.1103 25.439C27.2876 24.2617 27.949 22.6649 27.949 20.9999C27.949 19.335 27.2876 17.7382 26.1103 16.5609C24.933 15.3836 23.3363 14.7222 21.6713 14.7222Z" fill="#A20303"/>
</svg>
