<svg width="39" height="48" viewBox="0 0 39 48" fill="none" xmlns="http://www.w3.org/2000/svg">
<path d="M19.3383 5.16697C15.4534 5.16697 11.7276 6.71024 8.98057 9.45727C6.23354 12.2043 4.69027 15.9301 4.69027 19.815C4.69027 25.8039 8.41923 31.5815 12.5123 36.0575C14.6052 38.3376 16.8888 40.435 19.3383 42.3269C19.7038 42.0465 20.1328 41.7047 20.6252 41.3015C22.5918 39.6866 24.4427 37.9357 26.1642 36.0617C30.2573 31.5815 33.9863 25.806 33.9863 19.815C33.9863 15.9301 32.443 12.2043 29.696 9.45727C26.9489 6.71024 23.2232 5.16697 19.3383 5.16697ZM19.3383 47.4662L18.1518 46.6501L18.1455 46.6459L18.133 46.6355L18.0911 46.6062L17.9342 46.4953L17.3692 46.083C14.5062 43.9314 11.8466 41.5219 9.42367 38.8846C5.14645 34.2014 0.505127 27.4236 0.505127 19.8129C0.505127 14.818 2.48933 10.0277 6.02123 6.49584C9.55313 2.96394 14.3434 0.979736 19.3383 0.979736C24.3331 0.979736 29.1234 2.96394 32.6553 6.49584C36.1872 10.0277 38.1714 14.818 38.1714 19.8129C38.1714 27.4236 33.5301 34.2035 29.2529 38.8804C26.8306 41.5176 24.1717 43.9271 21.3095 46.0788C21.071 46.2569 20.8304 46.432 20.5875 46.6041L20.5436 46.6334L20.531 46.6438L20.5269 46.6459L19.3383 47.4662ZM19.3383 15.6298C18.2283 15.6298 17.1638 16.0708 16.3789 16.8556C15.5941 17.6405 15.1531 18.705 15.1531 19.815C15.1531 20.9249 15.5941 21.9895 16.3789 22.7743C17.1638 23.5592 18.2283 24.0001 19.3383 24.0001C20.4482 24.0001 21.5128 23.5592 22.2976 22.7743C23.0825 21.9895 23.5234 20.9249 23.5234 19.815C23.5234 18.705 23.0825 17.6405 22.2976 16.8556C21.5128 16.0708 20.4482 15.6298 19.3383 15.6298ZM10.968 19.815C10.968 17.595 11.8499 15.466 13.4196 13.8963C14.9893 12.3266 17.1183 11.4447 19.3383 11.4447C21.5582 11.4447 23.6872 12.3266 25.257 13.8963C26.8267 15.466 27.7086 17.595 27.7086 19.815C27.7086 22.0349 26.8267 24.1639 25.257 25.7337C23.6872 27.3034 21.5582 28.1853 19.3383 28.1853C17.1183 28.1853 14.9893 27.3034 13.4196 25.7337C11.8499 24.1639 10.968 22.0349 10.968 19.815Z" fill="#A20303"/>
</svg>
