<svg width="127" height="27" viewBox="0 0 127 27" fill="none" xmlns="http://www.w3.org/2000/svg">
<path d="M13.5 18.3376L9.33748 21.5157C9.13123 21.6844 8.90623 21.7643 8.66248 21.7553C8.41873 21.7463 8.2031 21.6758 8.0156 21.5438C7.8281 21.4118 7.68298 21.2337 7.58023 21.0094C7.47748 20.7852 7.4726 20.5414 7.5656 20.2782L9.16873 15.0751L5.0906 12.1782C4.8656 12.0282 4.72498 11.8313 4.66873 11.5876C4.61248 11.3438 4.62185 11.1188 4.69685 10.9126C4.77185 10.7063 4.9031 10.5233 5.0906 10.3636C5.2781 10.2038 5.5031 10.1243 5.7656 10.1251H10.8L12.4312 4.72505C12.525 4.46255 12.6705 4.2608 12.8677 4.1198C13.065 3.9788 13.2757 3.90868 13.5 3.90943C13.7242 3.91018 13.9354 3.98068 14.1334 4.12093C14.3314 4.26118 14.4765 4.46255 14.5687 4.72505L16.2 10.1251H21.2344C21.4969 10.1251 21.7219 10.2049 21.9094 10.3647C22.0969 10.5244 22.2281 10.7071 22.3031 10.9126C22.3781 11.1181 22.3875 11.3431 22.3312 11.5876C22.275 11.8321 22.1344 12.0289 21.9094 12.1782L17.8312 15.0751L19.4344 20.2782C19.5281 20.5407 19.5236 20.7844 19.4209 21.0094C19.3181 21.2344 19.1726 21.4126 18.9844 21.5438C18.7961 21.6751 18.5805 21.7456 18.3375 21.7553C18.0945 21.7651 17.8695 21.6852 17.6625 21.5157L13.5 18.3376Z" fill="#FFF243"/>
<path d="M38.5151 18.3376L34.3526 21.5157C34.1464 21.6844 33.9214 21.7643 33.6776 21.7553C33.4339 21.7463 33.2182 21.6758 33.0307 21.5438C32.8432 21.4118 32.6981 21.2337 32.5954 21.0094C32.4926 20.7852 32.4877 20.5414 32.5807 20.2782L34.1839 15.0751L30.1057 12.1782C29.8807 12.0282 29.7401 11.8313 29.6839 11.5876C29.6276 11.3438 29.637 11.1188 29.712 10.9126C29.787 10.7063 29.9182 10.5233 30.1057 10.3636C30.2932 10.2038 30.5182 10.1243 30.7807 10.1251H35.8151L37.4464 4.72505C37.5401 4.46255 37.6856 4.2608 37.8829 4.1198C38.0801 3.9788 38.2909 3.90868 38.5151 3.90943C38.7394 3.91018 38.9505 3.98068 39.1485 4.12093C39.3465 4.26118 39.4916 4.46255 39.5839 4.72505L41.2151 10.1251H46.2495C46.512 10.1251 46.737 10.2049 46.9245 10.3647C47.112 10.5244 47.2432 10.7071 47.3182 10.9126C47.3932 11.1181 47.4026 11.3431 47.3464 11.5876C47.2901 11.8321 47.1495 12.0289 46.9245 12.1782L42.8464 15.0751L44.4495 20.2782C44.5432 20.5407 44.5387 20.7844 44.436 21.0094C44.3332 21.2344 44.1877 21.4126 43.9995 21.5438C43.8112 21.6751 43.5956 21.7456 43.3526 21.7553C43.1096 21.7651 42.8846 21.6852 42.6776 21.5157L38.5151 18.3376Z" fill="#FFF243"/>
<path d="M62.8623 18.3376L58.6998 21.5157C58.4935 21.6844 58.2685 21.7643 58.0248 21.7553C57.781 21.7463 57.5654 21.6758 57.3779 21.5438C57.1904 21.4118 57.0453 21.2337 56.9425 21.0094C56.8398 20.7852 56.8349 20.5414 56.9279 20.2782L58.531 15.0751L54.4529 12.1782C54.2279 12.0282 54.0873 11.8313 54.031 11.5876C53.9748 11.3438 53.9842 11.1188 54.0592 10.9126C54.1342 10.7063 54.2654 10.5233 54.4529 10.3636C54.6404 10.2038 54.8654 10.1243 55.1279 10.1251H60.1623L61.7935 4.72505C61.8873 4.46255 62.0328 4.2608 62.23 4.1198C62.4273 3.9788 62.638 3.90868 62.8623 3.90943C63.0865 3.91018 63.2977 3.98068 63.4957 4.12093C63.6937 4.26118 63.8388 4.46255 63.931 4.72505L65.5623 10.1251H70.5967C70.8592 10.1251 71.0842 10.2049 71.2717 10.3647C71.4592 10.5244 71.5904 10.7071 71.6654 10.9126C71.7404 11.1181 71.7498 11.3431 71.6935 11.5876C71.6373 11.8321 71.4967 12.0289 71.2717 12.1782L67.1935 15.0751L68.7967 20.2782C68.8904 20.5407 68.8859 20.7844 68.7832 21.0094C68.6804 21.2344 68.5349 21.4126 68.3467 21.5438C68.1584 21.6751 67.9428 21.7456 67.6998 21.7553C67.4568 21.7651 67.2318 21.6852 67.0248 21.5157L62.8623 18.3376Z" fill="#FFF243"/>
<path d="M87.2095 18.3376L83.047 21.5157C82.8407 21.6844 82.6157 21.7643 82.372 21.7553C82.1282 21.7463 81.9126 21.6758 81.7251 21.5438C81.5376 21.4118 81.3925 21.2337 81.2897 21.0094C81.187 20.7852 81.1821 20.5414 81.2751 20.2782L82.8782 15.0751L78.8001 12.1782C78.5751 12.0282 78.4345 11.8313 78.3782 11.5876C78.322 11.3438 78.3313 11.1188 78.4063 10.9126C78.4813 10.7063 78.6126 10.5233 78.8001 10.3636C78.9876 10.2038 79.2126 10.1243 79.4751 10.1251H84.5095L86.1407 4.72505C86.2345 4.46255 86.38 4.2608 86.5772 4.1198C86.7745 3.9788 86.9852 3.90868 87.2095 3.90943C87.4337 3.91018 87.6448 3.98068 87.8428 4.12093C88.0408 4.26118 88.186 4.46255 88.2782 4.72505L89.9095 10.1251H94.9438C95.2063 10.1251 95.4313 10.2049 95.6188 10.3647C95.8063 10.5244 95.9376 10.7071 96.0126 10.9126C96.0876 11.1181 96.097 11.3431 96.0407 11.5876C95.9845 11.8321 95.8438 12.0289 95.6188 12.1782L91.5407 15.0751L93.1438 20.2782C93.2376 20.5407 93.2331 20.7844 93.1303 21.0094C93.0276 21.2344 92.8821 21.4126 92.6938 21.5438C92.5056 21.6751 92.29 21.7456 92.047 21.7553C91.804 21.7651 91.579 21.6852 91.372 21.5157L87.2095 18.3376Z" fill="#FFF243"/>
<path d="M113.5 18.3376L109.337 21.5157C109.131 21.6844 108.906 21.7643 108.662 21.7553C108.419 21.7463 108.203 21.6758 108.016 21.5438C107.828 21.4118 107.683 21.2337 107.58 21.0094C107.477 20.7852 107.473 20.5414 107.566 20.2782L109.169 15.0751L105.091 12.1782C104.866 12.0282 104.725 11.8313 104.669 11.5876C104.612 11.3438 104.622 11.1188 104.697 10.9126C104.772 10.7063 104.903 10.5233 105.091 10.3636C105.278 10.2038 105.503 10.1243 105.766 10.1251H110.8L112.431 4.72505C112.525 4.46255 112.67 4.2608 112.868 4.1198C113.065 3.9788 113.276 3.90868 113.5 3.90943C113.724 3.91018 113.935 3.98068 114.133 4.12093C114.331 4.26118 114.476 4.46255 114.569 4.72505L116.2 10.1251H121.234C121.497 10.1251 121.722 10.2049 121.909 10.3647C122.097 10.5244 122.228 10.7071 122.303 10.9126C122.378 11.1181 122.387 11.3431 122.331 11.5876C122.275 11.8321 122.134 12.0289 121.909 12.1782L117.831 15.0751L119.434 20.2782C119.528 20.5407 119.524 20.7844 119.421 21.0094C119.318 21.2344 119.173 21.4126 118.984 21.5438C118.796 21.6751 118.58 21.7456 118.337 21.7553C118.094 21.7651 117.869 21.6852 117.662 21.5157L113.5 18.3376Z" fill="#FFF243"/>
</svg>
